<svg width="38" height="38" viewBox="0 0 38 38" fill="none" xmlns="http://www.w3.org/2000/svg">
<rect width="38" height="38" rx="19" fill="#076536"/>
<path d="M29 12.7988C28.2563 13.125 27.4637 13.3412 26.6375 13.4462C27.4875 12.9388 28.1363 12.1412 28.4412 11.18C27.6488 11.6525 26.7738 11.9863 25.8412 12.1725C25.0887 11.3713 24.0162 10.875 22.8462 10.875C20.5763 10.875 18.7487 12.7175 18.7487 14.9763C18.7487 15.3012 18.7762 15.6137 18.8438 15.9112C15.435 15.745 12.4188 14.1113 10.3925 11.6225C10.0387 12.2363 9.83125 12.9388 9.83125 13.695C9.83125 15.115 10.5625 16.3737 11.6525 17.1025C10.9937 17.09 10.3475 16.8988 9.8 16.5975C9.8 16.61 9.8 16.6262 9.8 16.6425C9.8 18.635 11.2212 20.29 13.085 20.6712C12.7512 20.7625 12.3875 20.8062 12.01 20.8062C11.7475 20.8062 11.4825 20.7913 11.2337 20.7362C11.765 22.36 13.2725 23.5538 15.065 23.5925C13.67 24.6838 11.8988 25.3412 9.98125 25.3412C9.645 25.3412 9.3225 25.3263 9 25.285C10.8162 26.4563 12.9688 27.125 15.29 27.125C22.835 27.125 26.96 20.875 26.96 15.4575C26.96 15.2762 26.9538 15.1013 26.945 14.9275C27.7588 14.35 28.4425 13.6288 29 12.7988Z" fill="white"/>
</svg>
