<svg width="24" height="23" viewBox="0 0 24 23" fill="none" xmlns="http://www.w3.org/2000/svg">
<path d="M1 2.90094e-08C0.734784 2.90094e-08 0.48043 0.105357 0.292893 0.292893C0.105357 0.48043 0 0.734784 0 1C0 1.26522 0.105357 1.51957 0.292893 1.70711C0.48043 1.89464 0.734784 2 1 2H2.78C2.92536 2.00025 3.06696 2.04614 3.18484 2.13118C3.30272 2.21623 3.39092 2.33614 3.437 2.474L6.734 12.367C6.881 12.807 6.899 13.279 6.787 13.729L6.516 14.816C6.117 16.41 7.358 18 9 18H21C21.2652 18 21.5196 17.8946 21.7071 17.7071C21.8946 17.5196 22 17.2652 22 17C22 16.7348 21.8946 16.4804 21.7071 16.2929C21.5196 16.1054 21.2652 16 21 16H9C8.61 16 8.36 15.68 8.455 15.303L8.66 14.485C8.69454 14.3466 8.7743 14.2238 8.88662 14.1359C8.99894 14.048 9.13739 14.0002 9.28 14H20C20.2101 14.0003 20.415 13.9343 20.5855 13.8115C20.7561 13.6888 20.8836 13.5154 20.95 13.316L23.615 5.316C23.6651 5.16567 23.6787 5.00559 23.6548 4.84895C23.6308 4.69232 23.57 4.54362 23.4773 4.41509C23.3847 4.28657 23.2628 4.18192 23.1217 4.10975C22.9806 4.03758 22.8245 3.99996 22.666 4H6.555C6.40947 3.99996 6.26764 3.95417 6.14956 3.86911C6.03148 3.78405 5.94313 3.66402 5.897 3.526L4.949 0.684C4.88265 0.484794 4.75528 0.311526 4.58495 0.188758C4.41462 0.0659891 4.20996 -5.05306e-05 4 2.90094e-08H1ZM8 19C7.46957 19 6.96086 19.2107 6.58579 19.5858C6.21071 19.9609 6 20.4696 6 21C6 21.5304 6.21071 22.0391 6.58579 22.4142C6.96086 22.7893 7.46957 23 8 23C8.53043 23 9.03914 22.7893 9.41421 22.4142C9.78929 22.0391 10 21.5304 10 21C10 20.4696 9.78929 19.9609 9.41421 19.5858C9.03914 19.2107 8.53043 19 8 19ZM20 19C19.4696 19 18.9609 19.2107 18.5858 19.5858C18.2107 19.9609 18 20.4696 18 21C18 21.5304 18.2107 22.0391 18.5858 22.4142C18.9609 22.7893 19.4696 23 20 23C20.5304 23 21.0391 22.7893 21.4142 22.4142C21.7893 22.0391 22 21.5304 22 21C22 20.4696 21.7893 19.9609 21.4142 19.5858C21.0391 19.2107 20.5304 19 20 19Z" fill="#333333"/>
</svg>
