<svg width="38" height="38" viewBox="0 0 38 38" fill="none" xmlns="http://www.w3.org/2000/svg">
<rect width="38" height="38" rx="19" fill="#076536"/>
<g clip-path="url(#clip0_326_3740)">
<path d="M28.998 14.8801C28.9511 13.8174 28.7789 13.0868 28.5323 12.4537C28.2779 11.7818 27.8865 11.1801 27.3737 10.68C26.8727 10.1721 26.2661 9.77743 25.6007 9.52745C24.9629 9.28127 24.2348 9.10943 23.1703 9.06257C22.0978 9.01175 21.7573 9 19.0371 9C16.317 9 15.9765 9.01175 14.908 9.05861C13.8434 9.10546 13.1116 9.27746 12.4776 9.52348C11.8042 9.77743 11.2016 10.1681 10.7006 10.68C10.1917 11.1801 9.79653 11.7857 9.54595 12.4499C9.29935 13.0868 9.1272 13.8134 9.08026 14.8761C9.02935 15.9467 9.01758 16.2866 9.01758 19.002C9.01758 21.7173 9.02935 22.0572 9.07629 23.1239C9.12322 24.1865 9.29553 24.9171 9.54213 25.5502C9.79653 26.2221 10.1917 26.8238 10.7006 27.3239C11.2016 27.8318 11.8082 28.2265 12.4736 28.4765C13.1116 28.7226 13.8395 28.8945 14.9042 28.9413C15.9725 28.9883 16.3132 28.9999 19.0333 28.9999C21.7535 28.9999 22.094 28.9883 23.1625 28.9413C24.227 28.8945 24.9589 28.7226 25.5929 28.4765C26.9394 27.9568 28.0039 26.8941 28.5245 25.5502C28.771 24.9133 28.9433 24.1865 28.9902 23.1239C29.0371 22.0572 29.0489 21.7173 29.0489 19.002C29.0489 16.2866 29.0449 15.9467 28.998 14.8801ZM27.1938 23.0457C27.1507 24.0225 26.9863 24.5499 26.8493 24.9015C26.5127 25.7728 25.82 26.4643 24.9471 26.8004C24.5949 26.9372 24.0627 27.1012 23.088 27.1441C22.0313 27.1911 21.7143 27.2027 19.0411 27.2027C16.3679 27.2027 16.047 27.1911 14.9941 27.1441C14.0156 27.1012 13.4872 26.9372 13.135 26.8004C12.7006 26.6402 12.3052 26.3862 11.9843 26.0541C11.6517 25.7298 11.3973 25.3391 11.2367 24.9055C11.0997 24.5539 10.9354 24.0225 10.8924 23.0497C10.8453 21.9948 10.8337 21.6783 10.8337 19.0097C10.8337 16.3412 10.8453 16.0209 10.8924 14.9699C10.9354 13.9932 11.0997 13.4657 11.2367 13.1141C11.3973 12.6804 11.6517 12.2859 11.9883 11.9654C12.313 11.6333 12.7044 11.3793 13.1389 11.2192C13.4912 11.0825 14.0235 10.9184 14.998 10.8754C16.0548 10.8285 16.3719 10.8168 19.0449 10.8168C21.7221 10.8168 22.0391 10.8285 23.092 10.8754C24.0705 10.9184 24.5989 11.0825 24.9511 11.2192C25.3855 11.3793 25.7808 11.6333 26.1017 11.9654C26.4344 12.2897 26.6888 12.6804 26.8493 13.1141C26.9863 13.4657 27.1507 13.997 27.1938 14.9699C27.2407 16.0248 27.2525 16.3412 27.2525 19.0097C27.2525 21.6783 27.2407 21.9908 27.1938 23.0457Z" fill="white"/>
<path d="M19.0372 13.8643C16.1958 13.8643 13.8904 16.1654 13.8904 19.002C13.8904 21.8385 16.1958 24.1397 19.0372 24.1397C21.8787 24.1397 24.1839 21.8385 24.1839 19.002C24.1839 16.1654 21.8787 13.8643 19.0372 13.8643ZM19.0372 22.3347C17.1938 22.3347 15.6986 20.8422 15.6986 19.002C15.6986 17.1617 17.1938 15.6693 19.0372 15.6693C20.8807 15.6693 22.3757 17.1617 22.3757 19.002C22.3757 20.8422 20.8807 22.3347 19.0372 22.3347Z" fill="white"/>
<path d="M25.589 13.6613C25.589 14.3237 25.051 14.8608 24.3873 14.8608C23.7238 14.8608 23.1858 14.3237 23.1858 13.6613C23.1858 12.9988 23.7238 12.4619 24.3873 12.4619C25.051 12.4619 25.589 12.9988 25.589 13.6613Z" fill="white"/>
</g>
<defs>
<clipPath id="clip0_326_3740">
<rect width="20" height="20" fill="white" transform="translate(9 9)"/>
</clipPath>
</defs>
</svg>
