<svg width="38" height="38" viewBox="0 0 38 38" fill="none" xmlns="http://www.w3.org/2000/svg">
<rect width="38" height="38" rx="19" fill="#076536"/>
<g clip-path="url(#clip0_326_3733)">
<path d="M28.9997 29.0001V21.6752C28.9997 18.0752 28.2247 15.3252 24.0246 15.3252C21.9996 15.3252 20.6495 16.4252 20.0995 17.4752H20.0495V15.6502H16.0745V29.0001H20.2245V22.3751C20.2245 20.6252 20.5495 18.9502 22.6996 18.9502C24.8246 18.9502 24.8496 20.9252 24.8496 22.4751V28.9751H28.9997V29.0001Z" fill="white"/>
<path d="M9.32422 15.6499H13.4743V28.9998H9.32422V15.6499Z" fill="white"/>
<path d="M11.4 9C10.075 9 9 10.075 9 11.4C9 12.725 10.075 13.825 11.4 13.825C12.7251 13.825 13.8001 12.725 13.8001 11.4C13.8001 10.075 12.7251 9 11.4 9Z" fill="white"/>
</g>
<defs>
<clipPath id="clip0_326_3733">
<rect width="20" height="20" fill="white" transform="translate(9 9)"/>
</clipPath>
</defs>
</svg>
