<svg width="38" height="38" viewBox="0 0 38 38" fill="none" xmlns="http://www.w3.org/2000/svg">
<rect width="38" height="38" rx="19" fill="#076536"/>
<g clip-path="url(#clip0_326_3730)">
<path d="M16.6092 20.2891C16.5341 20.2891 14.8821 20.2891 14.1311 20.2891C13.7306 20.2891 13.6055 20.1389 13.6055 19.7635C13.6055 18.7622 13.6055 17.7359 13.6055 16.7347C13.6055 16.3342 13.7557 16.209 14.1311 16.209H16.6092C16.6092 16.1339 16.6092 14.6821 16.6092 14.0063C16.6092 13.005 16.7844 12.0538 17.2851 11.1777C17.8107 10.2766 18.5617 9.67584 19.5129 9.32541C20.1386 9.10012 20.7644 9 21.4403 9H23.8933C24.2438 9 24.394 9.15019 24.394 9.50063V12.3542C24.394 12.7046 24.2438 12.8548 23.8933 12.8548C23.2175 12.8548 22.5416 12.8548 21.8658 12.8798C21.1899 12.8798 20.8395 13.2053 20.8395 13.9061C20.8145 14.6571 20.8395 15.383 20.8395 16.1589H23.7431C24.1436 16.1589 24.2938 16.3091 24.2938 16.7096V19.7384C24.2938 20.1389 24.1687 20.2641 23.7431 20.2641C22.842 20.2641 20.9146 20.2641 20.8395 20.2641V28.4243C20.8395 28.8498 20.7144 29 20.2638 29C19.2125 29 18.1862 29 17.1349 29C16.7594 29 16.6092 28.8498 16.6092 28.4743C16.6092 25.8461 16.6092 20.3642 16.6092 20.2891Z" fill="white"/>
</g>
<defs>
<clipPath id="clip0_326_3730">
<rect width="20" height="20" fill="white" transform="translate(9 9)"/>
</clipPath>
</defs>
</svg>
