<svg width="26" height="26" viewBox="0 0 26 26" fill="none" xmlns="http://www.w3.org/2000/svg">
<path d="M22.7493 4.33333H19.391C19.1396 3.1107 18.4743 2.01213 17.5074 1.22278C16.5404 0.433431 15.3309 0.00157573 14.0827 0L11.916 0C10.6678 0.00157573 9.45828 0.433431 8.49133 1.22278C7.52438 2.01213 6.85912 3.1107 6.60768 4.33333H3.24935C2.96203 4.33333 2.68648 4.44747 2.48332 4.65063C2.28015 4.8538 2.16602 5.12935 2.16602 5.41667C2.16602 5.70398 2.28015 5.97953 2.48332 6.1827C2.68648 6.38586 2.96203 6.5 3.24935 6.5H4.33268V20.5833C4.3344 22.0194 4.90564 23.3961 5.92109 24.4116C6.93654 25.427 8.31329 25.9983 9.74935 26H16.2493C17.6854 25.9983 19.0622 25.427 20.0776 24.4116C21.0931 23.3961 21.6643 22.0194 21.666 20.5833V6.5H22.7493C23.0367 6.5 23.3122 6.38586 23.5154 6.1827C23.7185 5.97953 23.8327 5.70398 23.8327 5.41667C23.8327 5.12935 23.7185 4.8538 23.5154 4.65063C23.3122 4.44747 23.0367 4.33333 22.7493 4.33333ZM11.916 2.16667H14.0827C14.7546 2.16749 15.4099 2.37616 15.9586 2.76406C16.5073 3.15197 16.9226 3.70012 17.1474 4.33333H8.85127C9.07615 3.70012 9.49141 3.15197 10.0401 2.76406C10.5888 2.37616 11.2441 2.16749 11.916 2.16667ZM19.4993 20.5833C19.4993 21.4453 19.1569 22.2719 18.5474 22.8814C17.938 23.4909 17.1113 23.8333 16.2493 23.8333H9.74935C8.8874 23.8333 8.06075 23.4909 7.45125 22.8814C6.84176 22.2719 6.49935 21.4453 6.49935 20.5833V6.5H19.4993V20.5833Z" fill="#E31E24"/>
<path d="M10.8333 19.4997C11.1207 19.4997 11.3962 19.3855 11.5994 19.1824C11.8025 18.9792 11.9167 18.7037 11.9167 18.4163V11.9163C11.9167 11.629 11.8025 11.3535 11.5994 11.1503C11.3962 10.9471 11.1207 10.833 10.8333 10.833C10.546 10.833 10.2705 10.9471 10.0673 11.1503C9.86414 11.3535 9.75 11.629 9.75 11.9163V18.4163C9.75 18.7037 9.86414 18.9792 10.0673 19.1824C10.2705 19.3855 10.546 19.4997 10.8333 19.4997Z" fill="#E31E24"/>
<path d="M15.1673 19.4997C15.4546 19.4997 15.7302 19.3855 15.9333 19.1824C16.1365 18.9792 16.2507 18.7037 16.2507 18.4163V11.9163C16.2507 11.629 16.1365 11.3535 15.9333 11.1503C15.7302 10.9471 15.4546 10.833 15.1673 10.833C14.88 10.833 14.6044 10.9471 14.4013 11.1503C14.1981 11.3535 14.084 11.629 14.084 11.9163V18.4163C14.084 18.7037 14.1981 18.9792 14.4013 19.1824C14.6044 19.3855 14.88 19.4997 15.1673 19.4997Z" fill="#E31E24"/>
</svg>
